<svg width="12" height="53" viewBox="0 0 12 53" fill="none" xmlns="http://www.w3.org/2000/svg">
<path d="M1 1.5293L1 0.367187L10.9941 0.367187L10.9941 5.93164L9.96875 5.93164L9.96875 1.5293L6.30469 1.5293L6.30469 5.66504L5.28613 5.66504L5.28613 1.5293L1 1.5293ZM1 8.57031L1 7.42871L11.6367 7.42871L11.6367 8.57031L1 8.57031ZM0.999999 12.1113L0.999999 10.9697L11.6367 10.9697L11.6367 12.1113L0.999999 12.1113ZM4.75976 20.9707C4.14453 20.9707 3.59538 20.8909 3.1123 20.7314C2.62923 20.5719 2.22135 20.3418 1.88867 20.041C1.55599 19.7402 1.30078 19.3757 1.12305 18.9473C0.949869 18.5234 0.86328 18.0426 0.86328 17.5049C0.86328 17.0036 0.949869 16.5433 1.12305 16.124C1.30078 15.7093 1.55599 15.3493 1.88867 15.0439C2.22135 14.7432 2.62923 14.5085 3.1123 14.3398C3.59538 14.1758 4.14453 14.0937 4.75976 14.0937C5.58008 14.0937 6.27734 14.2327 6.85156 14.5107C7.43034 14.7887 7.87012 15.1852 8.1709 15.7002C8.47624 16.2197 8.62891 16.8372 8.62891 17.5527C8.62891 18.2363 8.47624 18.8333 8.1709 19.3437C7.86556 19.8587 7.4235 20.2575 6.84473 20.54C6.27051 20.8271 5.57552 20.9707 4.75976 20.9707ZM4.75976 15.2695C4.1582 15.2695 3.63639 15.3493 3.19434 15.5088C2.75228 15.6683 2.41048 15.9144 2.16894 16.2471C1.92741 16.5798 1.80664 17.0081 1.80664 17.5322C1.80664 18.0518 1.92741 18.4779 2.16894 18.8105C2.41048 19.1478 2.75228 19.3962 3.19434 19.5557C3.63639 19.7152 4.1582 19.7949 4.75976 19.7949C5.35677 19.7949 5.87174 19.7152 6.30469 19.5557C6.74219 19.3962 7.07943 19.1501 7.31641 18.8174C7.55338 18.4847 7.67187 18.054 7.67187 17.5254C7.67187 16.7461 7.41439 16.1742 6.89941 15.8096C6.38444 15.4495 5.67122 15.2695 4.75976 15.2695ZM1.01367 29.0303L5.375 27.6973C5.56185 27.638 5.74414 27.5811 5.92187 27.5264C6.10417 27.4762 6.27734 27.4284 6.44141 27.3828C6.61002 27.3418 6.76497 27.3031 6.90625 27.2666C7.05208 27.2347 7.17741 27.2074 7.28223 27.1846L7.28223 27.1367C7.17741 27.1185 7.05208 27.0934 6.90625 27.0615C6.76497 27.0296 6.61002 26.9909 6.44141 26.9453C6.27279 26.9043 6.09505 26.8587 5.9082 26.8086C5.72591 26.7585 5.54134 26.7015 5.35449 26.6377L1.01367 25.2432L1.01367 23.9648L8.50586 21.9004L8.50586 23.0762L4.37012 24.1562C4.09668 24.2292 3.82552 24.2975 3.55664 24.3613C3.29232 24.4297 3.04167 24.4867 2.80469 24.5322C2.57226 24.5824 2.36947 24.6188 2.19629 24.6416L2.19629 24.6963C2.31022 24.7236 2.44694 24.7533 2.60644 24.7852C2.76595 24.8216 2.93457 24.8604 3.1123 24.9014C3.2946 24.9469 3.47461 24.9948 3.65234 25.0449C3.83463 25.0951 4.00553 25.1452 4.16504 25.1953L8.50586 26.5762L8.50586 27.7998L4.17187 29.1328C3.95312 29.2012 3.72526 29.2673 3.48828 29.3311C3.2513 29.3994 3.02116 29.4609 2.79785 29.5156C2.5791 29.5703 2.38314 29.609 2.20996 29.6318L2.20996 29.6865C2.36491 29.7048 2.55631 29.7389 2.78418 29.7891C3.01204 29.8392 3.26269 29.8962 3.53613 29.96C3.80957 30.0283 4.08756 30.099 4.37012 30.1719L8.50586 31.2656L8.50586 32.4209L1.01367 30.3496L1.01367 29.0303ZM10.9941 45.1562L4.52734 45.1562C3.82096 45.1562 3.19206 45.0127 2.64062 44.7256C2.08919 44.443 1.65397 44.0146 1.33496 43.4404C1.02051 42.8662 0.863279 42.1462 0.863279 41.2803C0.863279 40.0452 1.19824 39.1042 1.86816 38.457C2.53808 37.8145 3.43359 37.4932 4.55469 37.4932L10.9941 37.4932L10.9941 38.6621L4.52051 38.6621C3.67285 38.6621 3.01888 38.8854 2.55859 39.332C2.09831 39.7832 1.86816 40.4554 1.86816 41.3486C1.86816 41.9593 1.97754 42.4583 2.19629 42.8457C2.41959 43.2376 2.72949 43.527 3.12597 43.7139C3.52702 43.9053 3.98958 44.001 4.51367 44.001L10.9941 44.001L10.9941 45.1562ZM3.05078 52.4844C2.57226 52.4844 2.16894 52.3636 1.84082 52.1221C1.51725 51.8851 1.27344 51.5433 1.10937 51.0967C0.94531 50.6546 0.863279 50.126 0.863279 49.5107C0.863279 48.9867 0.904295 48.5332 0.986326 48.1504C1.06836 47.7676 1.18457 47.4326 1.33496 47.1455L2.38086 47.1455C2.23047 47.4508 2.09375 47.8154 1.9707 48.2393C1.84765 48.6631 1.78613 49.096 1.78613 49.5381C1.78613 50.1852 1.89095 50.6546 2.10058 50.9463C2.31022 51.238 2.59505 51.3838 2.95508 51.3838C3.16015 51.3838 3.34017 51.3245 3.49511 51.2061C3.65462 51.0921 3.80729 50.8984 3.95312 50.625C4.10351 50.3516 4.26758 49.9733 4.44531 49.4902C4.6276 49.0117 4.80762 48.597 4.98535 48.2461C5.16764 47.8997 5.38867 47.6309 5.64844 47.4395C5.9082 47.2526 6.24544 47.1592 6.66015 47.1592C7.29362 47.1592 7.77897 47.4144 8.11621 47.9248C8.45801 48.4398 8.6289 49.1143 8.6289 49.9482C8.6289 50.3994 8.58333 50.821 8.49219 51.2129C8.4056 51.6094 8.28711 51.9785 8.13672 52.3203L7.22754 51.9375C7.3597 51.6276 7.47135 51.2972 7.5625 50.9463C7.65364 50.5954 7.69922 50.2376 7.69922 49.873C7.69922 49.349 7.61263 48.9456 7.43945 48.6631C7.26627 48.3851 7.02929 48.2461 6.72851 48.2461C6.49609 48.2461 6.30469 48.3099 6.15429 48.4375C6.0039 48.5697 5.86263 48.7793 5.73047 49.0664C5.59831 49.3535 5.44336 49.7318 5.26562 50.2012C5.09245 50.6706 4.91243 51.0762 4.72558 51.418C4.54329 51.7598 4.31998 52.0218 4.05566 52.2041C3.7959 52.3909 3.46094 52.4844 3.05078 52.4844Z" fill="white"/>
</svg>
