<svg width="24" height="24" viewBox="0 0 24 24" fill="none" xmlns="http://www.w3.org/2000/svg">
<path d="M11.9401 24C18.5641 24 23.9401 18.624 23.9401 12C23.9401 5.376 18.5641 -2.34992e-07 11.9401 -5.24537e-07C6.13206 -7.78412e-07 1.29607 4.128 0.180065 9.6L8.34006 9.6L8.34006 7.2L11.9401 7.2L11.9401 9.6L14.9401 9.6C17.2561 9.6 19.1401 11.484 19.1401 13.8L19.1401 16.8L15.5401 16.8L15.5401 14.4C15.5401 13.74 15.0001 13.2 14.3401 13.2L11.9401 13.2L11.9401 16.8L8.34006 16.8L8.34006 13.2L6.42729e-05 13.2C0.600062 19.26 5.71206 24 11.9401 24Z" fill="white"/>
</svg>
