<svg width="22" height="22" viewBox="0 0 22 22" fill="none" xmlns="http://www.w3.org/2000/svg">
<path d="M21.8 19.2C21.8 19.8365 21.5472 20.447 21.0971 20.8971C20.647 21.3471 20.0366 21.6 19.4 21.6L2.60005 21.6C1.96353 21.6 1.35308 21.3471 0.902991 20.8971C0.452905 20.447 0.200048 19.8365 0.200048 19.2L0.200048 2.4C0.200048 1.76348 0.452906 1.15303 0.902992 0.702943C1.35308 0.252855 1.96353 -8.67082e-07 2.60005 -8.39259e-07L19.4 -1.04907e-07C20.0366 -7.70842e-08 20.647 0.252856 21.0971 0.702944C21.5472 1.15303 21.8 1.76348 21.8 2.4L21.8 19.2ZM3.20005 18.6L9.56005 18.6C10.5976 18.6 11.5926 18.1878 12.3262 17.4542C13.0599 16.7206 13.472 15.7255 13.472 14.688C13.472 13.668 12.848 12.48 11.912 11.904L13.244 11.904L13.244 8.556L3.20005 8.556L3.20005 11.904L9.11605 11.904C10.04 11.904 10.796 12.648 10.796 13.572C10.796 14.0176 10.619 14.4449 10.304 14.7599C9.98893 15.075 9.56161 15.252 9.11605 15.252L3.20005 15.252L3.20005 18.6ZM15.128 4.656C15.128 5.19068 15.3404 5.70345 15.7185 6.08153C16.0966 6.4596 16.6094 6.672 17.144 6.672C18.26 6.672 19.172 5.772 19.172 4.656C19.172 4.11814 18.9584 3.60231 18.5781 3.22199C18.1977 2.84166 17.6819 2.628 17.144 2.628C16.028 2.628 15.128 3.54 15.128 4.656ZM3.20005 6.324L13.244 6.324L13.244 3L3.20005 3L3.20005 6.324Z" fill="white"/>
</svg>
