<svg width="24" height="25" viewBox="0 0 24 25" fill="none" xmlns="http://www.w3.org/2000/svg">
<path d="M24 7.55998L24 17.64C24 21.48 20.88 24.6 17.04 24.6L6.96 24.6C5.11409 24.6 3.34379 23.8667 2.03854 22.5614C0.733281 21.2562 -8.25529e-07 19.4859 -7.44842e-07 17.64L-3.04231e-07 7.55998C-1.3638e-07 3.71997 3.12 0.599975 6.96 0.599975L17.04 0.599975C18.8859 0.599975 20.6562 1.33326 21.9615 2.63851C23.2667 3.94377 24 5.71407 24 7.55998ZM21.6 7.31998C21.6 6.17424 21.1449 5.07543 20.3347 4.26527C19.5245 3.45512 18.4257 2.99998 17.28 2.99998L6.72 2.99997C4.332 2.99997 2.4 4.93197 2.4 7.31997L2.4 17.88C2.4 19.0257 2.85514 20.1245 3.6653 20.9347C4.47545 21.7448 5.57426 22.2 6.72 22.2L17.28 22.2C19.668 22.2 21.6 20.268 21.6 17.88L21.6 7.31998ZM19.8 18.9C19.8 19.2978 19.642 19.6793 19.3607 19.9606C19.0794 20.2419 18.6978 20.4 18.3 20.4C17.9022 20.4 17.5206 20.2419 17.2393 19.9606C16.958 19.6793 16.8 19.2978 16.8 18.9C16.8 18.5022 16.958 18.1206 17.2393 17.8393C17.5206 17.558 17.9022 17.4 18.3 17.4C18.6978 17.4 19.0794 17.558 19.3607 17.8393C19.642 18.1206 19.8 18.5022 19.8 18.9ZM18 12.6C18 14.1913 17.3679 15.7174 16.2426 16.8426C15.1174 17.9678 13.5913 18.6 12 18.6C10.4087 18.6 8.88258 17.9678 7.75736 16.8426C6.63214 15.7174 6 14.1913 6 12.6C6 11.0087 6.63214 9.48255 7.75736 8.35733C8.88258 7.23212 10.4087 6.59997 12 6.59998C13.5913 6.59998 15.1174 7.23212 16.2426 8.35733C17.3679 9.48255 18 11.0087 18 12.6ZM15.6 12.6C15.6 11.6452 15.2207 10.7295 14.5456 10.0544C13.8705 9.37926 12.9548 8.99998 12 8.99998C11.0452 8.99998 10.1295 9.37926 9.45441 10.0544C8.77928 10.7295 8.4 11.6452 8.4 12.6C8.4 13.5548 8.77928 14.4704 9.45441 15.1456C10.1295 15.8207 11.0452 16.2 12 16.2C12.9548 16.2 13.8705 15.8207 14.5456 15.1456C15.2207 14.4704 15.6 13.5548 15.6 12.6Z" fill="white"/>
</svg>
