<svg width="21" height="26" viewBox="0 0 21 26" fill="none" xmlns="http://www.w3.org/2000/svg">
<path d="M18.4 25.3039C17.98 24.3799 17.704 23.384 17.572 22.352C18.208 23.408 19.216 24.224 20.428 24.608C19.828 23.612 19.408 22.508 19.168 21.344C20.2 20.396 20.8 19.064 20.8 17.552C20.8 14.732 18.496 12.428 15.652 12.428C15.244 12.428 14.848 12.476 14.476 12.56C14.692 8.28795 16.744 4.48395 19.852 1.95195C19.096 1.50795 18.208 1.25595 17.272 1.25595C15.484 1.25595 13.9 2.15595 13 3.54795C13 2.69595 13.24 1.90395 13.6 1.20795L13.564 1.20795C11.068 1.20795 8.98005 2.98395 8.51205 5.33595C8.3054 4.58082 8.27665 3.78807 8.42805 3.01995C7.40507 3.34588 6.50996 3.9842 5.86853 4.84517C5.22711 5.70615 4.87162 6.74649 4.85205 7.81995C3.41152 6.00031 2.63287 3.74475 2.64405 1.42395C2.64405 1.01595 2.66805 0.60795 2.71605 0.19995C1.25205 2.47995 0.400049 5.19195 0.400049 8.09595C0.400048 17.552 8.24805 22.748 15.052 22.748C15.28 22.748 15.496 22.748 15.724 22.736C16.444 23.7439 17.356 24.608 18.4 25.3039Z" fill="white"/>
</svg>
