<svg width="39" height="41" viewBox="0 0 39 41" fill="none" xmlns="http://www.w3.org/2000/svg">
<mask id="mask0_588_45980" style="mask-type:alpha" maskUnits="userSpaceOnUse" x="0" y="0" width="39" height="41">
<path d="M0.363341 7.52241C0.444653 1.75273 6.67232 -1.83618 11.7189 0.978368L34.2159 13.5253C39.3874 16.4093 39.4394 23.8182 34.3092 26.7748L11.4497 39.9483C6.31957 42.9047 -0.0825296 39.1552 0.000805178 33.2428L0.363341 7.52241Z" fill="#5A1BFF"/>
</mask>
<g mask="url(#mask0_588_45980)">
<path d="M0.363341 7.52241C0.444653 1.75273 6.67232 -1.83618 11.7189 0.978368L34.2159 13.5253C39.3874 16.4093 39.4394 23.8182 34.3092 26.7748L11.4497 39.9483C6.31957 42.9047 -0.0825296 39.1552 0.000805178 33.2428L0.363341 7.52241Z" fill="white"/>
<path d="M-7.26985 11.9033C-7.18853 6.13359 -0.960866 2.54468 4.08572 5.35923L26.5827 17.9061C31.7542 20.7901 31.8063 28.1991 26.676 31.1556L3.81656 44.3292C-1.31361 47.2855 -7.71571 43.536 -7.63237 37.6236L-7.26985 11.9033Z" fill="#AF91FF" fill-opacity="0.5"/>
<path d="M-17.0021 17.2366C-16.9208 11.467 -10.6931 7.87805 -5.6465 10.6926L16.8505 23.2395C22.0219 26.1235 22.074 33.5324 16.9438 36.489L-5.91567 49.6625C-11.0458 52.6189 -17.4479 48.8694 -17.3646 42.957L-17.0021 17.2366Z" fill="#AF91FF" fill-opacity="0.5"/>
<path d="M-9.75061 1.61762C-9.6693 -4.15206 -3.44163 -7.74096 1.60496 -4.92642L24.1019 7.62044C29.2734 10.5046 29.3255 17.9134 24.1953 20.87L1.33579 34.0435C-3.79438 36.9999 -10.1965 33.2504 -10.1131 27.338L-9.75061 1.61762Z" fill="#AF90FF" fill-opacity="0.2"/>
<path d="M-18.147 -2.76336C-18.0657 -8.53304 -11.8381 -12.1219 -6.79146 -9.3074L15.7055 3.23946C20.877 6.12357 20.9291 13.5324 15.7988 16.489L-7.06063 29.6625C-12.1908 32.6189 -18.5929 28.8694 -18.5096 22.957L-18.147 -2.76336Z" fill="#AF90FF" fill-opacity="0.2"/>
</g>
</svg>
