<svg width="138" height="49" viewBox="0 0 138 49" fill="none" xmlns="http://www.w3.org/2000/svg">
<mask id="mask0_588_45979" style="mask-type:alpha" maskUnits="userSpaceOnUse" x="1" y="4" width="39" height="41">
<path d="M1.36334 11.5224C1.44465 5.75273 7.67232 2.16382 12.7189 4.97837L35.2159 17.5253C40.3874 20.4093 40.4394 27.8182 35.3092 30.7748L12.4497 43.9483C7.31957 46.9047 0.91747 43.1552 1.00081 37.2428L1.36334 11.5224Z" fill="#5A1BFF"/>
</mask>
<g mask="url(#mask0_588_45979)">
<path d="M1.36334 11.5224C1.44465 5.75273 7.67232 2.16382 12.7189 4.97837L35.2159 17.5253C40.3874 20.4093 40.4394 27.8182 35.3092 30.7748L12.4497 43.9483C7.31957 46.9047 0.91747 43.1552 1.00081 37.2428L1.36334 11.5224Z" fill="white"/>
<path d="M-6.26985 15.9033C-6.18853 10.1336 0.0391339 6.54468 5.08572 9.35923L27.5827 21.9061C32.7542 24.7901 32.8063 32.1991 27.676 35.1556L4.81656 48.3292C-0.313613 51.2855 -6.71571 47.536 -6.63237 41.6236L-6.26985 15.9033Z" fill="#AF91FF" fill-opacity="0.5"/>
<path d="M-16.0021 21.2366C-15.9208 15.467 -9.6931 11.878 -4.6465 14.6926L17.8505 27.2395C23.0219 30.1235 23.074 37.5324 17.9438 40.489L-4.91567 53.6625C-10.0458 56.6189 -16.4479 52.8694 -16.3646 46.957L-16.0021 21.2366Z" fill="#AF91FF" fill-opacity="0.5"/>
<path d="M-8.75061 5.61762C-8.6693 -0.152058 -2.44163 -3.74096 2.60496 -0.92642L25.1019 11.6204C30.2734 14.5046 30.3255 21.9134 25.1953 24.87L2.33579 38.0435C-2.79438 40.9999 -9.19648 37.2504 -9.11315 31.338L-8.75061 5.61762Z" fill="#AF90FF" fill-opacity="0.2"/>
<path d="M-17.147 1.23664C-17.0657 -4.53304 -10.8381 -8.12195 -5.79146 -5.3074L16.7055 7.23946C21.877 10.1236 21.9291 17.5324 16.7988 20.489L-6.06063 33.6625C-11.1908 36.6189 -17.5929 32.8694 -17.5096 26.957L-17.147 1.23664Z" fill="#AF90FF" fill-opacity="0.2"/>
</g>
<path d="M56.3847 15.2599H52.1259V31.4208C52.1259 33.6916 53.176 35.1071 55.8888 35.1071H65.544V31.1259H56.3847V15.2599ZM75.1472 35.4905C78.2101 35.4905 80.602 33.9865 81.8563 31.3618L78.6768 29.7398C78.0059 31.0964 76.6932 31.8631 75.1181 31.8631C73.047 31.8631 71.5593 30.5655 71.2676 28.6192H82.0021V27.3806C82.0021 23.3993 79.3477 19.9784 74.768 19.9784C70.305 19.9784 67.2714 23.4583 67.2714 27.6755C67.2714 32.335 70.6551 35.4905 75.1472 35.4905ZM71.4427 26.2894C71.7344 24.8149 72.9303 23.6352 74.7389 23.6352C76.489 23.6352 77.7142 24.7854 77.8892 26.2894H71.4427ZM90.7235 35.1071V24.0481H95.8282V35.1071H99.9703V20.5092H90.7235V19.8899C90.7235 18.2385 91.6861 17.4422 93.2612 17.4422C94.0197 17.4422 94.8948 17.6487 95.5657 18.0615V13.9918C94.8364 13.6674 93.8446 13.4905 92.882 13.4905C88.6524 13.4905 86.5814 16.2331 86.5814 19.7425V20.5092H84.0144V24.0481H86.5814V35.1071H90.7235ZM111.077 24.1661C113.44 24.1661 114.519 26.083 114.519 28.3243V35.1071H118.661V27.8229C118.661 23.5468 116.124 20.0964 111.077 20.0964C106.031 20.0964 103.551 23.5763 103.551 27.8229V35.1071H107.693V28.3243C107.693 26.083 108.744 24.1661 111.077 24.1661ZM129.271 35.4905C132.334 35.4905 134.726 33.9865 135.98 31.3618L132.8 29.7398C132.13 31.0964 130.817 31.8631 129.242 31.8631C127.171 31.8631 125.683 30.5655 125.391 28.6192H136.126V27.3806C136.126 23.3993 133.471 19.9784 128.892 19.9784C124.429 19.9784 121.395 23.4583 121.395 27.6755C121.395 32.335 124.779 35.4905 129.271 35.4905ZM125.566 26.2894C125.858 24.8149 127.054 23.6352 128.863 23.6352C130.613 23.6352 131.838 24.7854 132.013 26.2894H125.566Z" fill="white"/>
</svg>
